<?xml version="1.0" standalone="no"?>
<!DOCTYPE svg PUBLIC "-//W3C//DTD SVG 20010904//EN"
 "http://www.w3.org/TR/2001/REC-SVG-20010904/DTD/svg10.dtd">
<svg version="1.0" xmlns="http://www.w3.org/2000/svg"
 width="656.000000pt" height="661.000000pt" viewBox="0 0 656.000000 661.000000"
 preserveAspectRatio="xMidYMid meet">

<g transform="translate(0.000000,661.000000) scale(0.100000,-0.100000)"
fill="#000000" stroke="none">
<path d="M3755 6520 c-459 -6 -455 -9 46 -29 274 -11 393 -20 384 -29 -4 -4
-22 -7 -130 -16 -60 -5 -987 -36 -1085 -37 -47 0 -125 -4 -175 -9 -49 -5 -121
-12 -160 -14 -38 -3 -101 -10 -140 -15 -38 -6 -104 -11 -145 -11 -71 0 -239
-26 -325 -50 -74 -21 -120 -32 -150 -37 -60 -9 -262 -11 -320 -3 -33 5 -125
16 -205 25 -80 9 -149 20 -155 25 -5 4 -30 10 -55 13 -25 3 -85 13 -135 21
-114 20 -226 12 -315 -21 -36 -13 -90 -34 -120 -45 -30 -12 -81 -38 -114 -59
-32 -22 -60 -39 -62 -39 -2 0 -27 -22 -56 -50 -29 -27 -58 -50 -65 -50 -7 0
-17 -9 -23 -20 -6 -11 -15 -18 -21 -15 -5 4 -9 -1 -9 -9 0 -10 -6 -13 -17 -9
-12 5 -15 2 -11 -8 4 -9 -2 -14 -18 -15 -28 -2 -29 0 -8 20 8 9 14 22 11 29
-2 6 -23 -28 -46 -78 -81 -173 -81 -174 -111 -370 -5 -33 -10 -1044 -11 -2345
-1 -2527 -5 -2369 62 -2554 106 -293 351 -531 634 -614 188 -56 50 -53 2576
-53 2325 0 2326 0 2429 21 294 60 535 227 680 471 53 90 112 254 132 369 17
98 17 4621 0 4740 -33 228 -139 447 -284 588 -145 141 -288 215 -518 269 -68
16 -143 18 -820 18 -410 0 -925 -2 -1145 -5z m-850 -651 c5 -5 18 -9 29 -9 18
0 87 -45 94 -62 2 -4 14 -8 27 -8 13 0 27 -4 30 -10 3 -5 1 -10 -5 -10 -6 0
12 -22 41 -50 29 -27 56 -50 61 -50 5 0 6 -10 3 -22 -5 -18 -4 -19 4 -8 8 12
11 12 17 -3 4 -11 13 -16 21 -13 23 9 36 -4 21 -21 -12 -15 -11 -15 9 -3 12 8
19 18 16 24 -3 5 -1 6 6 2 9 -6 9 -11 0 -22 -10 -12 -9 -13 6 -7 15 5 17 3 12
-11 -6 -14 -3 -17 9 -12 30 11 56 -4 52 -29 -4 -18 -1 -22 10 -17 9 3 13 1 9
-5 -18 -29 305 -134 586 -192 206 -42 224 -51 258 -126 36 -82 79 -368 79
-531 0 -89 -26 -373 -34 -382 -3 -2 -60 -5 -128 -6 -117 -1 -123 0 -121 19 20
183 25 364 15 499 -13 167 -23 215 -50 239 -9 8 -62 22 -117 32 -240 39 -544
140 -732 242 -46 24 -88 41 -94 37 -7 -4 -9 -3 -5 4 8 13 -158 106 -177 99 -7
-3 -4 -6 6 -6 11 -1 15 -6 11 -13 -4 -7 -3 -8 4 -4 7 4 22 0 34 -10 l23 -16
-22 5 c-16 3 -20 1 -16 -10 4 -11 15 -13 37 -9 22 4 27 3 16 -4 -8 -5 -23 -10
-32 -10 -10 0 -18 -4 -18 -9 0 -5 10 -7 23 -4 20 6 20 4 -6 -20 -15 -15 -23
-27 -17 -27 6 0 8 -5 4 -12 -4 -7 -3 -8 5 -4 15 10 76 18 67 9 -3 -3 3 -12 14
-20 22 -15 16 -43 -9 -43 -36 0 214 -135 352 -189 97 -39 256 -84 392 -112 69
-14 117 -29 130 -41 19 -18 20 -31 19 -291 0 -150 -5 -290 -10 -312 l-10 -40
-84 -21 c-271 -70 -509 -222 -665 -424 -142 -185 -212 -459 -175 -687 13 -85
61 -230 91 -280 l20 -31 -28 -19 c-58 -41 -141 -83 -162 -83 -12 0 -54 16 -94
36 -230 116 -481 355 -628 599 -135 222 -246 545 -290 835 -7 47 -16 89 -21
94 -4 6 -8 18 -8 28 0 10 -7 18 -15 18 -10 0 -15 11 -16 33 -1 30 -2 30 -8 7
-6 -19 -9 -9 -13 40 -3 40 -14 79 -27 101 -22 37 -53 177 -41 184 7 4 19 75
23 140 1 18 7 29 15 28 10 -3 17 16 13 39 0 4 6 5 15 1 20 -8 35 16 24 37 -7
13 -2 22 21 39 16 12 27 26 24 31 -3 4 4 6 15 3 12 -3 20 0 20 6 0 7 4 10 9 7
5 -4 22 -1 38 6 22 9 24 12 11 15 -38 9 -17 25 25 19 31 -4 35 -3 17 3 -23 8
-24 9 -3 10 12 1 25 6 29 13 4 6 3 8 -3 5 -5 -3 -38 -11 -74 -17 -35 -6 -71
-13 -79 -15 -8 -2 -30 -4 -49 -4 -26 -1 -32 -4 -27 -17 5 -14 4 -15 -9 -4 -37
31 -61 -43 -77 -242 -18 -239 10 -577 72 -853 26 -114 101 -344 151 -458 162
-379 465 -702 834 -891 52 -27 103 -46 122 -46 33 0 151 57 229 111 55 37 68
37 94 -5 11 -19 45 -57 75 -84 30 -27 55 -53 55 -59 0 -10 -25 -28 -117 -87
-73 -46 -169 -95 -248 -127 -73 -29 -83 -31 -127 -20 -89 20 -332 152 -473
256 -189 139 -356 315 -490 514 -284 426 -452 1071 -443 1704 1 114 6 207 10
207 5 0 8 12 8 28 0 15 7 61 16 102 9 41 16 84 16 96 -1 11 14 35 33 54 19 18
32 36 30 40 -3 4 3 7 13 6 9 0 16 5 14 12 -1 8 1 11 5 9 5 -3 22 1 38 9 22 10
23 12 6 8 -20 -5 -22 -4 -11 8 8 8 27 13 44 11 26 -3 28 -2 11 6 -18 8 -18 10
-2 10 10 1 20 7 23 15 3 8 22 17 42 22 24 4 30 9 19 11 -14 4 -16 8 -7 18 6 8
18 11 26 8 9 -3 14 2 14 15 0 14 6 19 23 18 12 -1 29 3 37 10 31 26 133 74
156 74 15 0 24 6 24 15 0 10 14 17 41 21 22 4 43 13 46 20 3 8 17 14 32 14 14
0 39 7 55 15 15 8 34 15 42 15 7 0 18 8 23 18 6 9 11 12 11 5 0 -15 59 4 66
21 2 6 19 12 36 13 18 1 36 9 40 18 5 8 13 15 18 15 5 0 34 11 64 25 30 14 58
25 61 25 3 0 22 12 40 26 19 14 39 23 44 20 5 -4 13 0 18 8 4 8 10 15 13 15 3
0 12 2 20 4 83 25 221 28 245 6z m65 -533 c-5 -5 -22 -10 -37 -12 -26 -3 -27
-2 -10 11 21 15 63 17 47 1z m2088 -225 c3 -114 -17 -223 -58 -306 -32 -68
-117 -166 -178 -209 -45 -31 -263 -130 -304 -138 -25 -5 -27 -2 -33 45 -18
131 27 327 101 434 47 69 125 140 195 178 78 42 220 95 249 92 25 -2 25 -4 28
-96z m-4934 -256 c3 -99 9 -290 13 -425 15 -465 0 -1137 -26 -1163 -11 -11
-18 56 -32 333 -22 450 -6 1360 25 1360 6 0 6 4 -1 11 -6 6 -10 18 -7 25 12
40 15 47 19 43 2 -3 6 -86 9 -184z m1611 175 c3 -5 1 -10 -4 -10 -6 0 -11 5
-11 10 0 6 2 10 4 10 3 0 8 -4 11 -10z m3360 -578 c52 -26 125 -94 125 -116 0
-23 -65 -81 -124 -111 -40 -20 -65 -25 -127 -25 -42 0 -95 7 -117 14 -48 17
-183 83 -196 97 -14 13 46 71 107 105 123 66 247 80 332 36z m-759 -327 c433
-74 753 -350 829 -715 8 -36 15 -110 16 -165 1 -74 5 -105 16 -117 26 -29 13
-143 -23 -204 -36 -62 -55 -84 -71 -84 -7 0 -13 -5 -13 -10 0 -6 -17 -18 -37
-28 -21 -9 -74 -50 -118 -90 -96 -88 -191 -152 -300 -202 -186 -86 -319 -113
-551 -114 l-170 -1 -95 -61 c-166 -106 -329 -169 -473 -181 -60 -5 -71 -4 -82
12 -8 11 -14 23 -14 27 0 5 38 49 84 97 89 94 135 173 143 244 5 42 5 42 -62
91 -315 231 -431 591 -297 925 37 93 130 228 208 300 145 136 356 238 569 275
109 19 331 20 441 1z m2101 -620 c-1 -49 -6 -85 -12 -85 -5 0 -10 11 -9 25 3
117 5 145 14 145 5 0 8 -36 7 -85z m11 -335 c3 -133 1 -210 -5 -210 -11 0 -23
189 -23 350 0 72 3 91 12 82 8 -8 13 -80 16 -222z m-3408 -2105 l0 -425 -85 0
-85 0 0 425 0 425 85 0 85 0 0 -425z m-1362 387 c64 -20 172 -87 172 -106 0
-6 -24 -35 -53 -64 l-53 -53 -28 22 c-73 57 -211 77 -291 40 -95 -43 -149
-133 -149 -246 0 -108 50 -196 138 -242 43 -23 170 -28 221 -10 l40 14 0 74 0
74 -58 5 c-73 7 -97 38 -64 84 14 19 111 35 224 36 l62 0 6 -34 c4 -18 3 -100
-2 -182 l-8 -148 -75 -38 c-189 -97 -430 -64 -556 75 -26 29 -61 81 -78 117
-29 61 -31 72 -31 180 0 108 2 119 31 180 50 106 141 185 254 221 76 25 220
25 298 1z m771 -19 c7 -16 68 -158 136 -318 68 -159 142 -332 163 -382 l40
-93 -93 0 -93 0 -34 83 -35 82 -189 3 -189 2 -30 -81 c-16 -45 -35 -83 -41
-86 -6 -2 -47 -3 -92 -1 l-80 3 65 155 c145 345 256 607 270 633 13 26 16 27
102 27 86 0 88 -1 100 -27z m969 -83 c34 -58 99 -169 143 -247 45 -79 85 -143
89 -143 5 0 24 28 43 63 86 153 237 413 247 425 7 7 37 12 80 12 l70 0 0 -410
0 -410 -78 0 -79 0 -6 108 c-3 59 -6 160 -6 226 0 65 -2 120 -4 123 -3 2 -42
-60 -87 -139 -128 -220 -134 -228 -179 -228 -47 0 -48 1 -151 175 -108 182
-119 201 -121 195 0 -3 -2 -106 -3 -230 l-2 -225 -81 -3 -80 -3 -5 403 c-3
222 -3 407 -1 411 3 4 37 7 76 5 l72 -3 63 -105z m1216 -96 c69 -21 103 -50
133 -113 27 -53 27 -61 31 -261 1 -114 0 -214 -4 -223 -5 -14 -20 -17 -85 -17
-78 0 -79 0 -79 25 0 30 -11 32 -35 5 -41 -45 -177 -58 -256 -23 -57 26 -107
78 -115 120 -10 51 1 122 23 152 50 66 125 91 278 91 102 0 105 2 85 54 -25
65 -151 88 -251 45 -27 -12 -51 -20 -53 -18 -16 18 -56 113 -49 119 4 4 32 17
61 29 96 40 215 46 316 15z m490 -79 c31 -47 60 -85 64 -85 5 0 34 38 66 85
l58 85 95 0 95 0 -35 -47 c-88 -123 -177 -252 -177 -258 0 -3 43 -67 95 -142
136 -192 134 -173 18 -173 l-98 1 -49 79 c-54 88 -74 110 -84 93 -4 -5 -31
-47 -61 -92 l-54 -81 -94 0 -94 0 49 73 c27 39 75 107 106 151 31 43 56 82 56
87 0 5 -45 74 -100 153 -55 79 -100 146 -100 150 0 3 42 6 93 6 l94 0 57 -85z
m961 -901 c-92 -82 -266 -150 -444 -173 -93 -12 -592 -13 -631 -1 -24 7 -23 7
10 13 19 4 148 8 285 11 342 5 490 35 680 136 137 73 171 78 100 14z m-1165
-163 c42 -6 48 -9 25 -11 -117 -13 -1023 -14 -1055 -2 -25 10 -24 10 10 16 19
3 55 7 80 9 82 7 884 -4 940 -12z"/>
<path d="M3298 5553 c7 -3 16 -2 19 1 4 3 -2 6 -13 5 -11 0 -14 -3 -6 -6z"/>
<path d="M2760 5425 c-14 -8 -20 -14 -14 -15 5 0 19 7 30 15 24 18 16 19 -16
0z"/>
<path d="M2828 5333 c7 -3 16 -2 19 1 4 3 -2 6 -13 5 -11 0 -14 -3 -6 -6z"/>
<path d="M2838 5313 c7 -3 16 -2 19 1 4 3 -2 6 -13 5 -11 0 -14 -3 -6 -6z"/>
<path d="M2912 5291 c-11 -6 -10 -10 5 -16 31 -13 63 -14 70 -3 4 7 -2 9 -16
5 -27 -7 -53 1 -45 14 6 11 3 11 -14 0z"/>
<path d="M1948 4953 c7 -3 16 -2 19 1 4 3 -2 6 -13 5 -11 0 -14 -3 -6 -6z"/>
<path d="M1883 4943 c9 -2 23 -2 30 0 6 3 -1 5 -18 5 -16 0 -22 -2 -12 -5z"/>
<path d="M2767 3048 c-5 -18 3 -48 14 -48 12 0 12 47 0 54 -5 4 -11 0 -14 -6z"/>
<path d="M2810 3000 c0 -5 5 -10 10 -10 6 0 10 5 10 10 0 6 -4 10 -10 10 -5 0
-10 -4 -10 -10z"/>
<path d="M3582 3370 c-34 -21 -62 -72 -62 -112 0 -34 35 -85 69 -103 66 -34
149 -5 177 62 20 47 11 95 -25 135 -37 41 -109 50 -159 18z"/>
<path d="M4034 3357 c-31 -28 -37 -41 -42 -85 -4 -50 -3 -53 37 -93 40 -40 43
-41 96 -37 93 8 143 78 115 162 -18 55 -62 86 -121 86 -42 0 -55 -5 -85 -33z"/>
<path d="M4514 3371 c-61 -38 -72 -130 -23 -186 52 -59 121 -64 182 -14 59 49
58 140 -2 193 -32 29 -117 33 -157 7z"/>
<path d="M2283 1112 l-61 -147 65 -3 c35 -2 90 -2 123 0 l59 3 -58 143 c-32
78 -60 145 -63 147 -2 3 -32 -62 -65 -143z"/>
<path d="M4469 901 c-62 -9 -79 -25 -79 -71 0 -30 6 -43 26 -59 52 -41 163
-18 194 39 6 11 10 38 8 58 l-3 37 -50 1 c-27 1 -71 -1 -96 -5z"/>
</g>
</svg>
